<svg id="Layer_1" enable-background="new 0 0 512 512" height="512" viewBox="0 0 512 512" width="512" xmlns="http://www.w3.org/2000/svg" xmlns:xlink="http://www.w3.org/1999/xlink"><linearGradient id="SVGID_1_" gradientUnits="userSpaceOnUse" x1="122.134" x2="405.847" y1="95.98" y2="95.98"><stop offset="0" stop-color="#ff97bd"/><stop offset="1" stop-color="#ffb0d0"/></linearGradient><linearGradient id="SVGID_2_" gradientUnits="userSpaceOnUse" x1="110.669" x2="413.592" y1="204.748" y2="204.748"><stop offset="0" stop-color="#ffb0d0"/><stop offset="1" stop-color="#ffc7de"/></linearGradient><linearGradient id="SVGID_3_" gradientUnits="userSpaceOnUse" x1="180.698" x2="331.302" y1="460.744" y2="460.744"><stop offset="0" stop-color="#ff9827"/><stop offset="1" stop-color="#ffac48"/></linearGradient><linearGradient id="SVGID_4_" gradientUnits="userSpaceOnUse" x1="97.735" x2="414.265" y1="288.918" y2="288.918"><stop offset="0" stop-color="#ffc477"/><stop offset="1" stop-color="#ffdaa4"/></linearGradient><linearGradient id="SVGID_5_" gradientUnits="userSpaceOnUse" x1="132.822" x2="379.178" y1="380.543" y2="380.543"><stop offset="0" stop-color="#ffac48"/><stop offset="1" stop-color="#ffc477"/></linearGradient><circle cx="141.485" cy="84.145" fill="#ffeda1" r="16.156"/><circle cx="395.334" cy="57.915" fill="#b2e59c" r="16.156"/><path d="m394.172 139.305s48.719-73.025-52.885-136.193c-11.061-6.876-25.449-1.874-30.148 10.272-7.185 18.572-29.301 42.283-93.779 50.343-69.683 8.71-111.616 30.604-89.126 106.224 0 0 127.766 66.031 265.938-30.646z" fill="url(#SVGID_1_)"/><path d="m394.172 139.305s-97.002 57.146-265.938 30.646c0 0-41.065 52.283 2.384 100.24h246.356s69.328-45.117 17.198-130.886z" fill="url(#SVGID_2_)"/><path d="m180.698 409.488 10.616 70.502c2.771 18.401 18.582 32.01 37.191 32.01h54.99c18.609 0 34.42-13.609 37.191-32.01l10.617-70.502z" fill="url(#SVGID_3_)"/><path d="m259.939 435.565h-75.315l6.274 41.662h69.041c11.505 0 20.831-9.326 20.831-20.831s-9.326-20.831-20.831-20.831z" fill="#ff8103"/><path d="m379.178 324.005h-246.356c-19.378 0-35.087-15.709-35.087-35.087 0-19.378 15.709-35.087 35.087-35.087h246.356c19.378 0 35.087 15.709 35.087 35.087 0 19.378-15.709 35.087-35.087 35.087z" fill="url(#SVGID_4_)"/><path d="m132.822 324.005 11.159 68.991c4.11 25.409 26.047 44.084 51.787 44.084h120.465c25.74 0 47.677-18.674 51.787-44.084l11.158-68.991z" fill="url(#SVGID_5_)"/><path d="m309.265 365.667c11.505 0 20.831-9.326 20.831-20.831s-9.326-20.831-20.831-20.831h-176.443l6.738 41.662z" fill="#ff9827"/><circle cx="251.877" cy="57.915" fill="#cf92ff" r="16.156"/><circle cx="196.853" cy="116.457" fill="#b5e9f1" r="16.156"/><circle cx="331.302" cy="95.98" fill="#ff737d" r="16.156"/><ellipse cx="174.245" cy="215.577" fill="#ff85ab" rx="14.936" ry="12.003"/><ellipse cx="350.016" cy="215.577" fill="#ff85ab" rx="14.936" ry="12.003"/><circle cx="199.852" cy="185.959" fill="#fff" r="29.618"/><circle cx="187.886" cy="185.959" fill="#383842" r="17.652"/><circle cx="324.409" cy="185.959" fill="#fff" r="29.618"/><circle cx="312.444" cy="185.959" fill="#383842" r="17.652"/><path d="m269.721 193.153h-15.181c-3.007 0-5.658 1.976-6.506 4.862-2.672 9.09-5.742 27.748 14.097 27.748 19.838 0 16.769-18.659 14.097-27.748-.849-2.885-3.5-4.862-6.507-4.862z" fill="#383842"/><path d="m249.923 221.563c2.461 2.549 6.32 4.2 12.207 4.2s9.746-1.651 12.208-4.2c-1.247-4.845-6.234-8.47-12.208-8.47-5.973 0-10.96 3.625-12.207 8.47z" fill="#ff737d"/><g fill="#ffeed7"><path d="m335.08 302.305h-63.675c-5.523 0-10-4.477-10-10s4.477-10 10-10h63.675c5.523 0 10 4.477 10 10s-4.478 10-10 10z"/><circle cx="372.514" cy="292.305" r="10"/></g></svg>